<?xml version="1.0" encoding="utf-8"?>
<!-- Generator: Adobe Illustrator 15.1.0, SVG Export Plug-In . SVG Version: 6.00 Build 0)  -->
<!DOCTYPE svg PUBLIC "-//W3C//DTD SVG 1.1//EN" "http://www.w3.org/Graphics/SVG/1.1/DTD/svg11.dtd">
<svg version="1.1" id="Layer_1" xmlns="http://www.w3.org/2000/svg" xmlns:xlink="http://www.w3.org/1999/xlink" x="0px" y="0px"
	 width="2045.744px" height="2099.738px" viewBox="0 0 2045.744 2099.738" enable-background="new 0 0 2045.744 2099.738"
	 xml:space="preserve">
<path fill="#FFFFFF" stroke="#FFFFFF" stroke-miterlimit="10" d="M965.879,391.951c-49.322,1.333-98.659,2.666-147.98,3.999
	c6.014-41.864-31.238-83.596-63.992-87.989c-22.548-3.024-35.18,20.791-51.994,8.999c-5.332-6.665-10.666-13.332-15.998-19.997
	c5.238-54.496,86.396-47.554,126.984-29.996c18.796,8.131,35.491,20.439,50.993,31.996
	c25.427-103.178,109.159-199.336,201.976-235.97c127.547-50.344,304.912,0.471,365.954,76.99
	c17.155,21.505,32.737,45.77,42.995,73.991c18.345,50.468,15.664,132.145-2,181.977c-36.163,102.023-117.92,173.746-177.979,253.969
	c-32.148-14.693-77.574-22.845-118.984-25.997c1.332-1.333,2.666-2.667,4-4c15.995-19.996,31.998-39.997,47.993-59.993
	c45.326-59.792,98.762-114.026,125.984-190.976c13.25-37.454,26.367-104.54,3-141.982c-50.396-80.754-182.302-122.36-285.964-60.993
	C1002.282,206.581,963.168,282.828,965.879,391.951z"/>
<path fill="#FFFFFF" stroke="#FFFFFF" stroke-miterlimit="10" d="M835.896,425.947c135.355-1.102,329.183,0.233,419.946,44.994
	c-0.666,0.667-1.333,1.333-2,2c-18.33,26.993-36.664,53.995-54.993,80.989c-73.377-0.587-146.173-5.987-222.972-5.999
	c-30.66,1-61.329,2-91.988,3c-154.093,26.547-278.049,64.538-376.952,143.982c-36.291,29.15-74.29,75.041-93.988,119.984
	c-13.961,31.855-22.293,67.838-29.996,105.987c-30.228,149.696,26.409,271.7,104.987,334.958
	c21.228,17.09,37.002,38.947,60.991,53.994c58.985,36.994,127.52,59.932,196.976,86.988c-0.667,50.988-1.333,101.992-2,152.98
	c-34.261-2.625-69.108-10.418-99.988-17.998c-107.12-26.291-191.164-50.816-273.966-98.986
	c-27.66-14.996-55.329-29.998-82.99-44.994c-68.047-42.596-127.519-100.732-164.979-173.979
	c-49.504-96.797-67.892-237.85-21.997-354.957c30.003-76.557,85.251-141.779,132.983-202.975
	c18.662-16.663,37.33-33.331,55.993-49.994c58.405-45.826,118.493-82.582,194.977-111.986
	c61.691-23.718,138.221-34.191,203.975-50.992c30.606-7.821,63.154-9.818,96.988-14.998
	C801.898,427.28,818.899,426.613,835.896,425.947z"/>
<path fill="#FFFFFF" stroke="#FFFFFF" stroke-miterlimit="10" d="M1654.793,510.936c36.203,1.892,28.893,27.899,42.995,50.994
	c14.33,13.664,28.665,27.331,42.995,40.995c54.626,54.613,119.682,96.844,183.977,141.982c23.662,16.663,47.33,33.331,70.991,49.994
	c-0.333,1.333-0.667,2.667-1,4c-8.001,4.019-12.063,11.851-21.998,13.998c-41.107,8.886-137.978-15.365-172.978-24.997
	c-60.998-16.786-110.543-48.006-164.979-71.991c-81.981-37.658-163.988-75.328-245.969-112.986
	c17.996-29.327,35.998-58.662,53.993-87.989c38.55,22.795,83.116,39.688,121.984,62.992c17.438,10.455,35.31,29.084,63.992,21.997
	C1647.267,570.987,1622.355,529.221,1654.793,510.936z"/>
<path fill="#FFFFFF" d="M943.882,577.928c1,0,2,0,3,0c-2.667,188.958-5.333,377.973-7.999,566.929
	c-52.082-6.35-88.54-28.881-122.984-51.994c8.664-166.628,17.332-333.308,25.996-499.938
	C875.887,587.927,909.89,582.927,943.882,577.928z"/>
<path fill="#FFFFFF" stroke="#FFFFFF" stroke-miterlimit="10" d="M980.877,641.92c29.66,0,59.329,0,88.989,0
	c65.962,10.606,128.655,13.143,191.976,26.997c26.956,5.898,51.899,13.896,74.991,23.997c18.154,7.942,36.045,24.653,57.993,26.997
	c10.486-5.063,17.986-13.522,23.997-22.997c14.331,8.998,28.665,17.999,42.995,26.997c29.444,36.686,59.301,96.646,98.986,120.985
	c28.76,17.637,99.344,28.054,102.987,66.99c-1.667,2-3.333,4-5,6c-29.687,7.909-106.294-11.722-140.981-16.998
	c-28.027,41.765-57.851,79.971-101.987,105.987c-11.505,6.781-33.987,23.853-53.994,18.998c-28.099-6.819-63.64-28.5-84.989-44.995
	c-35.446-27.386-64.775-96.765-5-121.984c10.309-4.349,21.374-1.824,34.996-4c8.999-1.436,21.426-2.911,30.996-1
	c5.833,4.217,16.348,24.26,13.999,31.996c-3.341,13.738-17.105,13.36-19.998,26.997c8.039,9.543,19.427,23.557,31.996,27.997
	c33.289,11.762,48.866-24.949,38.995-52.994c-17.383-49.384-61.674-80.186-103.987-104.986
	c-54.067-31.689-114.194-39.502-189.976-51.993c-30.327-0.667-60.662-1.333-90.989-2c-9.252,0.001-29.657,2.8-34.996-2
	C971.884,706.167,972.96,663.953,980.877,641.92z"/>
<path fill="#FFFFFF" stroke="#FFFFFF" stroke-miterlimit="10" d="M789.901,684.914c3.333,2,6.666,4,9.999,6
	c0,47.656,0,95.326,0,142.982c-77.087,36.317-100.114,118.053-59.992,210.974c28.06,64.985,83.189,103.68,153.98,125.983
	c178.379,56.203,443.168-20.734,568.93-75.99c52.322-25.328,104.658-50.663,156.979-75.99c11.375-1.8,28.386,10.109,34.996,14.998
	c-0.513,21.228-17.716,32.154-29.996,41.996c-33.036,26.473-64.768,52.889-100.987,76.99c-27.77,18.477-56.782,38.092-88.988,51.992
	c-55.395,23.912-115.699,36.801-176.979,54.994c-120.402,35.748-276.008,55.723-413.947,20.998
	c-123.72-31.146-238.788-102.211-282.966-210.975c-8.638-21.266-10.397-42.965-14.998-68.991
	c-8.863-50.143-16.182-119.745,6.999-158.979C599.959,762.296,704.414,726.337,789.901,684.914z"/>
<path fill="#FFFFFF" d="M1059.867,754.906c38.354-0.69,74.966,2.972,103.986,13.998c0,2,0,4,0,5.999
	c-9.664,11.664-19.332,23.331-28.996,34.996c-23.526,29.337-52.269,39.609-60.992,85.988c-5.592,29.728,19.016,72.472,13.999,89.989
	c-4.757,16.608-31.214,35.729-58.993,27.997c-14.021-3.902-24.283-23.885-31.996-34.996
	C946.439,906.229,997.382,781.675,1059.867,754.906z"/>
<path fill="#FFFFFF" stroke="#FFFFFF" stroke-miterlimit="10" d="M1949.756,1060.867c6.666,0,13.333,0,19.998,0
	c-5.581,28.32-28.097,53.949-41.995,75.99c-38.398,60.902-77.522,109.488-132.982,152.982
	c-41.236,32.338-81.827,67.66-126.984,95.988c-56.07,35.174-119.298,60.438-183.978,86.988
	c-133.53,54.814-289.38,100.75-467.94,108.986c-5.999-49.99-11.999-99.994-17.998-149.98c40.658-4.666,81.328-9.334,121.985-13.998
	c55.025-10.332,107.608-13.045,157.979-26.998c87.291-24.18,165.84-59.062,242.969-92.988
	c48.438-21.305,97.708-41.764,140.982-68.992c47.271-29.742,85.284-70.584,127.984-104.986
	c16.995-16.662,33.997-33.332,50.993-49.994C1877.095,1069.533,1913.431,1065.201,1949.756,1060.867z"/>
<path fill="#FFFFFF" stroke="#FFFFFF" stroke-miterlimit="10" d="M808.899,1304.837c47.322,10.996,94.659,21.998,141.981,32.996
	c4.333,41.656,8.666,83.326,12.999,124.984c3,38.99,6,77.992,8.999,116.984c11.898,68.861,25.595,130.223,47.994,186.977
	c19.045,48.258,38.423,94.662,82.989,116.984c1.3-48.539,52.094-42.473,85.989-28.996c21.428,8.521,50.041,17.873,60.992,36.996
	c5.775,10.084,2.433,21.439,4.999,35.996c8.401,47.635,4.811,71.613-18.998,102.986c-4.999,6-9.999,12-14.998,17.998
	c-35.457,19.656-114.352,12.674-147.98-1c-99.339-40.391-152.02-116.07-179.979-226.971c-6.803-26.984-5.637-56.152-9.999-86.988
	c-2.394-16.924,6.872-40.689,1-53.994c-0.333,0-0.667,0-1,0c-3.333,1-6.667,2-9.999,3
	c-11.001,64.777-92.403,163.898-143.981,189.977c-33.665,17.021-104.5-25.389-107.987-55.992
	c-1.995-17.516,23.135-32.135,31.996-40.996c30.515-30.514,64.069-64.533,86.989-101.986c19.885-32.496,25.97-73.01,35.995-115.986
	C794.544,1482.181,804.852,1390.509,808.899,1304.837z"/>
</svg>
